<svg version="1.2" baseProfile="tiny" xmlns="http://www.w3.org/2000/svg" viewBox="0 0 351.564 146.217" preserveAspectRatio="xMinYMin"><path d="M0 20.975v-18.391h16.111v18.391h-16.111zm0 95.755v-85.42h16.111v85.42h-16.111z"/><path d="M63.533 116.73v-9.879c-3.192 7.295-8.359 11.551-15.655 11.551-15.655 0-22.799-10.031-22.799-42.862 0-33.438 9.271-45.446 23.255-45.446 6.992 0 11.399 3.344 14.439 11.399v-41.494h15.959v116.73h-15.199zm-11.551-75.388c-8.208 0-10.487 8.968-10.487 32.983 0 25.23 1.52 32.526 10.639 32.526 7.296 0 10.792-9.12 10.792-32.375-.001-17.023-2.585-33.134-10.944-33.134z"/><path d="M115.06 118.402c-19.607 0-27.359-7.6-27.359-41.798 0-35.11 8.968-47.118 26.599-47.118 16.111 0 23.255 12.159 24.167 36.782.152 4.104 0 8.359-.304 11.399h-34.046c0 1.672.152 6.839.304 8.208 1.064 15.655 3.344 20.671 10.335 20.671 8.056 0 9.271-5.32 9.576-16.719 0-.912 0-3.496-.152-4.56l13.983 1.064c.304 1.672.456 5.928.304 8.512-.912 15.048-6.84 23.559-23.407 23.559zm8.208-58.365c-.456-9.12-2.736-18.999-9.12-18.999-7.144 0-9.271 5.016-10.031 22.951v3.344h19.151c.151-2.128.151-4.712 0-7.296z"/><path d="M191.97 118.099c-6.231 0-9.575-3.648-10.639-9.728-3.952 7.295-9.271 10.031-16.871 10.031-12.768 0-19.303-6.84-19.303-25.535 0-14.288 7.295-21.887 17.175-24.623l5.167-1.52c8.208-2.28 12.463-5.016 12.463-13.527 0-8.055-.912-13.375-8.815-13.375-8.512 0-8.664 3.952-8.664 11.095 0 2.736.456 5.472 1.064 8.056l-14.135.76c-.76-2.888-1.52-5.168-1.52-10.032 0-13.071 7.6-20.215 24.319-20.215 15.351 0 22.951 6.536 22.951 19.455v52.741c0 3.648 1.217 5.776 6.08 5.776.76 0 2.432-.152 2.888-.304v7.904c-2.888 1.521-7.144 3.041-12.16 3.041zm-19.91-40.735c-7.6 3.344-10.792 6.688-10.792 16.416 0 9.119 1.672 13.983 8.664 13.527 5.319-.304 9.423-5.624 9.575-15.503.152-7.904.304-19.455.304-19.455-1.216 1.52-5.623 4.103-7.751 5.015z"/><path d="M207.931 116.73v-116.73h16.111v116.73h-16.111z"/><path d="M259.761 118.402c-18.239 0-26.751-12.768-26.751-43.014 0-30.551 7.752-45.902 26.751-45.902s26.902 15.351 26.902 45.902c0 30.247-8.663 43.014-26.902 43.014zm0-77.212c-8.512 0-10.336 8.208-10.336 33.895 0 25.231 1.824 31.462 10.336 31.462s10.487-6.231 10.487-31.462c0-25.688-1.976-33.895-10.487-33.895z"/><path d="M320.254 146.217c-20.519 0-29.942-6.535-29.942-20.215 0-6.992 4.104-13.071 14.743-15.655-9.879-.608-13.071-6.536-13.071-12.463 0-8.208 5.624-12.463 13.68-14.743-7.296-3.344-10.791-14.288-10.791-24.471 0-17.328 8.359-28.575 25.99-28.575 5.319 0 9.728 1.52 12.312 3.192l2.584-14.288h14.743l-9.88 19.151c3.8 4.408 5.776 10.031 5.776 20.519 0 17.935-7.296 28.271-23.407 28.271-4.256 0-7.752-.456-10.336-1.216-4.104 1.064-5.775 2.736-5.775 5.472 0 3.496.304 5.32 10.031 5.016 4.864-.152 9.576-.304 12.312-.456 14.439-.608 22.343 7.448 22.343 24.015-.002 17.174-8.512 26.446-31.312 26.446zm3.8-35.87c-3.191 0-9.271.304-11.551.608-5.472 1.976-8.208 7.904-8.208 12.616 0 8.968 3.648 12.463 15.959 12.463 13.68 0 17.783-5.928 17.783-13.375 0-9.12-3.647-12.312-13.983-12.312zm-3.495-69.917c-7.296 0-9.424 4.104-9.424 18.239 0 14.591 2.888 17.783 9.424 17.783 7.144 0 9.575-3.191 9.575-17.783 0-14.135-2.584-18.239-9.575-18.239z"/></svg>